
<svg xmlns="http://www.w3.org/2000/svg" viewBox="0 0 55 55">
	<style type="text/css">
		.st0{fill:url(#SVGID_1_);stroke:#000000;stroke-width:1.25;stroke-miterlimit:10;filter:url(#defapp-filter-1);}
		.st1{fill:#DD7F03;stroke:#000000;stroke-width:0.25;stroke-miterlimit:10;}
		.st2{fill:#EEEEEE;stroke:#000000;stroke-width:0.25;stroke-miterlimit:10;}
		.st3{fill:none;stroke:#000000;stroke-width:0.25;stroke-miterlimit:10;}
		.st4{fill:#878787;stroke:#000000;stroke-width:0.25;stroke-miterlimit:10;}
		.st5{fill:#FFFFFF;stroke:#000000;stroke-width:0.25;stroke-miterlimit:10;}
		.st6{fill:#DD7F03;stroke:#000000;stroke-width:0.2;stroke-miterlimit:10;}
		.st7{fill:#FFFFFF;stroke:#000000;stroke-width:0.2;stroke-miterlimit:10;}
		.st8{fill:#757575;stroke:#000000;stroke-width:0.2;stroke-miterlimit:10;}
		.st9{fill:url(#SVGID_2_);}
	</style>
	<filter filterUnits="objectBoundingBox" id="defapp-filter-1">
		<feOffset dx="0" dy="1.5" in="SourceAlpha" result="defappShadowOffsetOuter1"></feOffset>
		<feGaussianBlur stdDeviation="1.25" in="defappShadowOffsetOuter1" result="defappShadowBlurOuter1"></feGaussianBlur>
		<feColorMatrix values="0 0 0 0 0   0 0 0 0 0   0 0 0 0 0  0 0 0 .5 0" type="matrix" in="defappShadowBlurOuter1" result="defappShadowMatrixOuter1"></feColorMatrix>
		<feMerge>
			<feMergeNode in="defappShadowMatrixOuter1"/>
			<feMergeNode in="SourceGraphic"/>
		</feMerge>
	</filter>
	<radialGradient id="SVGID_1_" cx="27.5" cy="29.7062" r="24.4535" fx="27.4371" fy="34.3322" gradientTransform="matrix(1 0 0 -1 0 55.8898)" gradientUnits="userSpaceOnUse">
		<stop  offset="0" style="stop-color:#FFFFFF"/>
		<stop  offset="0.1992" style="stop-color:#FBF9F8"/>
		<stop  offset="0.4858" style="stop-color:#EEE7E5"/>
		<stop  offset="0.8236" style="stop-color:#DACAC6"/>
		<stop  offset="1" style="stop-color:#CDB8B3"/>
	</radialGradient>
	<radialGradient id="SVGID_2_" cx="28.0429" cy="40.2647" r="31.3901" fx="27.8827" fy="62.8547" gradientTransform="matrix(1 0 0 -0.4954 0 35.5717)" gradientUnits="userSpaceOnUse">
		<stop  offset="2.490773e-03" style="stop-color:#FFFFFF"/>
		<stop  offset="0.8219" style="stop-color:#FFFCEC;stop-opacity:0"/>
	</radialGradient>
	<circle class="st0" cx="27.5" cy="26.2" r="24.6"/>
	<ellipse transform="matrix(0.2504 -0.9681 0.9681 0.2504 -9.6053 27.6403)" class="st1" cx="13" cy="20" rx="12.7" ry="8.8"/>
	<ellipse transform="matrix(0.2504 -0.9681 0.9681 0.2504 -10.0192 27.0643)" class="st2" cx="12.5" cy="20" rx="10.9" ry="7.2"/>
	<ellipse transform="matrix(0.9676 -0.2525 0.2525 0.9676 -9.2881 8.7082)" class="st1" cx="29.3" cy="40.5" rx="14.4" ry="9.8"/>
	<ellipse transform="matrix(0.9676 -0.2525 0.2525 0.9676 -9.554 8.7624)" class="st2" cx="29.4" cy="41.6" rx="12.3" ry="8.2"/>
	<path class="st1" d="M51.1,32.5c-0.2,0.8-0.4,1.6-0.7,2.4c-4.3-0.8-8.9-5-11.5-11.2c-3.2-7.5-2.2-15.2,2-18c0.7,0.5,1.4,1,2,1.5 c-3.7,2.1-4.5,8.9-1.7,15.5C43.5,28.2,47.5,32,51.1,32.5z"/>
	<path class="st2" d="M41.2,22.8c2.3,5.5,6.3,9.2,9.9,9.8c0.5-1.9,0.8-4,0.8-6c0-7.7-3.5-14.7-9-19.3C39.2,9.4,38.4,16.1,41.2,22.8z" />
	<circle class="st3" cx="14.7" cy="36.6" r="0.8"/>
	<circle class="st3" cx="20.3" cy="31.2" r="0.8"/>
	<circle class="st3" cx="44.5" cy="35" r="0.9"/>
	<circle class="st3" cx="40.5" cy="30.7" r="0.9"/>
	<circle class="st3" cx="29.2" cy="19.1" r="0.9"/>
	<circle class="st3" cx="28.8" cy="13" r="1"/>
	<path class="st3" d="M19,35.2c-1.4-1.1-2.9-2.9-3.5-3.9"/>
	<path class="st3" d="M41.2,33.7c0.9-0.7,2-2.4,2.1-3"/>
	<path class="st3" d="M37,16.2c-2.3-0.2-10.9-0.3-14.8,1.1"/>
	<path class="st4" d="M6.2,29.8c-0.6,0.6-1,1.3-1,1.8c1.6,2.2,4.3,3.4,5.9,3.5c0-1.6,0.1-2.4,0-2.8C9.5,32,7.7,31.5,6.2,29.8z"/>
	<path class="st4" d="M37.4,11.2c0,0-0.4-0.3-1-0.4c-0.4,0.8-0.6,1.6-0.7,2.1c-0.9-0.4-1.2-0.4-1.6-0.7c0.2-1.9,2-6.4,3.4-7.5 c2.1,0.4,2.8,0.6,3.4,1C39.1,6.9,37.7,9.4,37.4,11.2z"/>
	<ellipse transform="matrix(0.2504 -0.9681 0.9681 0.2504 -10.7609 26.326)" class="st5" cx="11.6" cy="20.1" rx="3" ry="2"/>
	<path class="st6" d="M7.9,27.4l1.8-3.3l1.2,0.7c0,0,0.6,3,0.6,4C9.2,29,8.4,28.1,7.9,27.4z"/>
	<path class="st6" d="M6.7,19.1c0.6,0,2-0.1,2-0.3c0-0.1,0.9-2.1,0.9-2.1s-1-0.8-1.5-1.2C7,16.9,6.8,18.4,6.7,19.1z"/>
	<path class="st6" d="M12.1,16c0.6,0.1,1.6,0.5,1.8,0.8c0.6-1.3,1.9-4.2,2.2-4.9c-0.8-1.5-2.2-1.4-2.7-1.3C13.1,12,12.3,15.3,12.1,16 z"/>
	<path class="st6" d="M14.4,19.1c0,0.5-0.1,1.4-0.1,1.7c1.1,0.5,3.2,1.5,3.6,1.6c0.4-1.3,0.5-3,0.4-3.7C16.8,19,14.8,19,14.4,19.1z" />
	<path class="st6" d="M25.9,41.5c0.5-0.5,2.2-1.6,2.9-1.7c-0.4-1.8-1.3-4.4-1.5-4.9c-0.2-0.5-5.7,2.5-6.2,3.2 C22.1,39,25.9,41.5,25.9,41.5z"/>
	<polygon class="st7" points="14.4,22.5 12.7,24.4 12.7,25.8 14,25.8 15.6,23.6 15.4,23.1 "/>
	<path class="st7" d="M40.6,15.1c1.1,0.2,3,0.2,3.6,0.3c0-1.6,0.2-2.4,0.5-3c-1.3-1-2.3-1.5-2.9-2.1C40.9,11.9,40.6,14.3,40.6,15.1z" />
	<path class="st7" d="M45.7,28.2c1.1,1.5,3.8,3.2,4.8,3.5c0.2-1.4,0-5,0-6.1c-1.1-0.5-2.1-1.1-2.6-1.5C46.8,26,45.9,27.4,45.7,28.2z" />
	<path class="st8" d="M18.7,41.8c0,0-0.5,2.2-0.4,3c1.3,0,1.9-0.2,1.9-0.2l0.4-1.6L18.7,41.8z"/>
	<path class="st8" d="M31.1,44.2l4.5-1.4v-1.5c0,0,4.2-1.5,4.7-1.7c-1.1-2.3-4.4-4-5.8-4.3c-0.8,1.9-1.3,3.9-1.6,4.5 c-1.9-0.2-5.5,1.8-6,2.5C28.9,43.6,31.1,44.2,31.1,44.2z"/>
	<path class="st6" d="M25.9,43.3c0.7,0.2,2.8,1.7,3.4,1.5c0.4,1.8,0.5,3.4,0.4,4c0,0.5-6.3,0-7-0.5C23.4,47.2,25.9,43.3,25.9,43.3z" />
	<path class="st8" d="M47.3,11.8c-1.2-1.4-2.9,6.7,0,10c0.7-2,1.4-3.4,1.4-3.4l1.1,0.2v4c0,0,0.8,0.2,1.8,0.4 C51.6,18.3,49.8,14.8,47.3,11.8z"/>
	<ellipse class="st9" cx="27.7" cy="17.3" rx="17.9" ry="14"/>
</svg>
