<svg xmlns="http://www.w3.org/2000/svg" width="0" height="0">

	<svg id="astray-logo" viewBox="0 0 482 133" cache="keep">
		<style type="text/css">
			.st0{fill:url(#SVG-GR-1);stroke:#66222277;stroke-width:1.5;}
		</style>
		<linearGradient id="SVG-GR-1" x1=".5" y1="0" x2=".5" y2=".9">
			<stop offset="0%" stop-color="#cc0" />
			<stop offset="100%" stop-color="#933" />
		</linearGradient>
		<path class="st0" d="M49.5,18.3l2.2,0.3c0.3,2.5,0.8,5,2.2,7.8c0,0.3,0.3,0.6,0.6,0.8V28l0.3,1.1l0.6,0.6l1.1,3.3l0.6,0.6 c0.3,1.1,0.8,2.2,1.7,3.6l0.3,1.1l0.6,0.6c0.6,1.9,1.7,4.2,3.6,6.1l1.4,2.2l0.3,1.1l1.9,2.5c0,0.3,0.3,0.6,0.6,0.8 c0,0.3,0.3,0.3,0.6,0.6l2.8,4.2l0.6,0.3c0,0.3,0.3,0.6,0.6,0.8l0.3,0.6l0.6,0.3c0.8,1.4,1.9,2.8,3.3,4.2l0.3,1.1l0.6,0.3l0.6,1.1 l0.6,0.3c0.3,1.4,1.1,2.5,2.5,3.9c0.6,1.4,1.7,3.1,3.1,4.4c0.3,1.7,1.1,3.3,2.5,4.7c0.3,1.4,1.1,2.8,2.2,4.4 c0.3,0.8,0.8,1.9,1.4,3.1c0.3,1.4,0.8,2.8,1.7,4.4c0,0.8,0.3,1.9,0.6,3.3v2.5c-1.9,0.8-3.9,2.2-5.8,4.2l-1.9,1.4 c-0.8,0.3-1.4,0.8-1.9,1.7l-0.8,0.3l-0.6,0.6l-2.8,1.7l-0.6,1.1l-1.1,0.3l-0.8,1.1h-1.7c-0.6-1.4-1.1-3.3-1.4-5.3 c0-0.3,0-0.6-0.3-0.8c0-0.8-0.3-1.4-0.8-2.2c0-0.3,0-0.6-0.3-0.8c0-0.3,0-0.8-0.3-1.1c0-0.3,0-0.6-0.3-0.8l-0.6-2.8l-0.8-0.6 c0-0.3,0-0.8-0.3-1.1L68.4,92l-0.3-1.1c-0.6-0.6-1.1-1.4-1.4-2.5l-0.6-0.6l-0.3-1.1c-0.6,0.3-1.1,0.6-1.7,1.1l-5.6-0.3h-1.1H55h-1.4 h-1.4L51.4,87l-1.1,0.6L49.5,87h-4.2h-1.1h-1.7h-4.2h-0.8h-1.1h-4.2h-1.1h-5.8h-1.1h-1.4l-4.2,6.4c-1.4,0.6-2.5,1.7-3.9,3.1 c-0.3,0-0.6,0.3-0.8,0.6l-0.6,0.3l-0.6,0.6l-1.1,0.3l-3.1,2.8l-1.1,0.6l-1.1,0.8l-0.8,0.8l-1.4,0.8H2.2l2.2-5 c0.3-0.8,0.8-1.7,1.1-2.8l0.6-0.6l0.3-1.1l0.3-0.8l0.8-1.4L8,91.4L8.6,90l0.8-2.2c1.7-2.5,3.1-5.6,4.2-9.2l0.3-0.6 c0.8-1.1,1.4-2.5,1.9-3.9l0.8-1.1l0.3-1.1l0.6-1.1l0.6-1.7l0.8-1.9l0.8-1.9c0.3-0.8,0.8-1.9,1.4-3.3c0.3-0.8,0.6-2.2,1.4-3.9 c0.3-1.1,0.6-2.2,0.8-3.6c0.8-1.4,1.4-3.1,1.9-5.6c0.3-0.3,0.3-0.6,0.3-1.1l0.8-1.7l0.6-1.7l0.6-1.7l0.8-1.7l0.6-1.7l1.7-3.1 l1.7-3.6l0.3-1.1l0.3-0.8l3.6-2.8l0.6-0.3l0.6-0.6l0.6-0.3l0.6-0.6l0.3-0.6l1.1-0.3l0.6-0.6l0.8-0.8l2.8-1.7l0.8-0.8 c1.1-0.6,2.2-1.4,3.3-2.8C48.6,18.9,49.2,18.6,49.5,18.3z M39.4,50.3l-0.8,2.2c-0.6,0.8-1.1,2.2-1.9,3.9l-0.3,1.1l-0.3,0.6l-0.6,1.1 L35,60.6l-0.6,1.1l-0.3,0.8l-0.6,1.4c-0.3,0.8-0.8,1.9-1.4,3.1l-0.3,0.6l-0.6,1.7l-2.2,4.4l-0.3,1.7c1.9-0.3,4.2-0.3,6.7-0.3h0.8 l1.4-0.3h0.8h4.7h4.2l1.7-0.3h1.9h5.6c-0.8-1.7-2.5-3.6-4.7-5.8c0-0.3-0.3-0.8-0.6-1.1l-0.6-0.8L50,65.8l-1.7-2.8l-0.8-0.8 c-0.3-0.3-0.3-0.6-0.6-0.8l-1.7-3.1l-1.1-0.8l-0.6-1.4l-1.1-0.8l-0.8-1.4l-0.3-1.4l-1.1-0.8C40.3,51.1,40,50.6,39.4,50.3z"/>
		<path class="st0" d="M134.3,34.5h1.9c1.7,9.5,6.9,16.1,16.1,19.7c-0.8,1.1-2.2,1.9-3.6,2.8c-0.8,0.3-1.4,1.1-2.2,1.9l-0.8,0.3l-2.8,1.9l-1.4,0.6 l-0.8,1.1l-1.4,0.6l-0.8,1.1c-0.8,0-1.9,0-3.1-0.3c-1.7-0.3-3.3-1.1-5.3-2.2l-2.2,0.6c-1.7-1.4-3.6-2.2-6.1-2.8l-0.6-0.3 c-1.4-0.6-3.1-0.8-4.7-0.6l8.3,3.6l1.1,0.6l1.1,0.3l0.8,0.3l5.3,1.7l0.6,0.3l5.3,1.4l10,3.3c0.8,0.3,1.9,0.8,3.3,1.1l2.2,1.1 l1.1,0.3c0.6,0.3,1.4,0.8,2.5,1.1l1.1,0.3c0.6,0.3,1.4,0.8,2.5,1.4c1.4,0.8,3.3,1.4,5.6,2.2c1.4,0.8,3.1,1.7,5,2.5l0.6,0.3l0.6,0.8 l1.1,0.6l0.6,0.6l1.1,0.3c0,0.3,0.3,0.6,0.6,0.8c1.7,2.5,2.5,5.3,2.2,8.6c-0.6,1.4-1.4,2.8-2.2,4.2c-0.8,0.3-1.7,1.1-2.5,2.2 l-1.9,1.1l-0.8,0.6l-0.6,0.3l-0.3,0.6l-1.1,0.3l-0.3,0.8c-1.9,0.8-3.9,2.2-6.1,4.2l-1.4,0.6l-1.4,1.1c-1.4,0.3-2.8,1.1-4.2,2.5 l-2.2,1.1l-0.6,0.6l-1.4,0.3l-1.1,1.1c-0.8,0.3-1.9,0.6-3.1,1.4l-2.2,1.1l-1.1,0.3l-0.8,0.8l-1.1,0.3l-1.1,0.3l-0.8,0.6 c-1.7,0.3-3.6,1.1-5.6,1.9c-0.3,0-0.3,0-0.6,0.3c-0.3,0-0.8,0.3-1.1,0.6l-1.7,0.3l-1.9,0.6l-2.2,0.3l-1.4,0.8 c-1.9,0-4.2,0.3-6.9,1.1h-1.4l-1.4,0.3c-1.4,0-2.8,0.3-4.4,0.6h-1.7h-1.1h-1.1l-5.3-1.1l-0.8-0.3h-1.1l-4.2-1.7 c-0.6-0.3-1.4-0.6-2.8-0.8c-1.9-1.9-3.3-4.2-4.7-6.7c-0.6-4.2,0-8.3,1.7-13.1l4.7-7.2c0.8-0.6,1.9-1.4,2.8-2.5l1.9-1.7l0.6-0.3 l0.3-0.6L102,89l0.6-0.6l0.6-0.6c0.8-0.8,1.7-1.4,3.1-2.2l0.6-0.6l1.1-0.8l0.8-0.6l1.1-0.8l0.8-0.8l3.1-1.7l0.8-0.6l1.1-0.8l0.8-0.6 l1.1-0.6l0.8-1.1l-6.9-2.8c-1.1-0.3-2.2-0.6-3.6-1.1l-1.1-0.3l-0.8-0.3c-0.3-0.3-0.8-0.3-1.4-0.3l-3.9-2.5c-0.8-0.3-1.9-0.6-2.8-1.4 L97,67.6c-0.8-0.8-2.2-1.9-3.9-3.3c0-0.3-0.3-0.6-0.6-0.8L92,61.5c1.4-0.8,2.5-1.9,3.9-3.6l1.1-0.3l0.3-0.6l1.1-0.8 c0.3,0,0.3-0.3,0.6-0.6c0.3-0.3,0.6-0.3,0.8-0.6l1.1-0.3l1.1-1.1l1.1-1.1l4.7-2.5c1.1-0.3,2.5-1.1,4.4-2.2h1.1l0.6-0.6l2.2-0.6h2.5 c0.8-0.3,1.1-0.8,0.8-1.9c0.8-0.3,1.9-1.1,2.8-2.2c1.1-0.3,2.2-1.1,3.3-2.2l1.1-0.6c0.3-0.3,0.3-0.6,0.6-0.8l1.9-1.1l0.8-0.6 l1.1-0.8l1.1-0.6l0.8-0.8L134.3,34.5z M140.4,84v4.2v1.1l-6.1,4.2l-1.1,0.6l-0.6,0.8l-0.8,0.3l-0.6,0.3l-2.2,1.9l-1.1,0.3l-1.1,1.4 l-1.4,0.6H124c0.8-9.2-3.1-14.2-11.7-15.3c-4.2,4.2-6.4,9.2-6.9,15.6c0,1.9,0.6,3.9,1.4,6.1v0.8c0.6,0.8,1.4,1.7,2.5,2.5l1.7,1.7 c15.6,5.3,32.8,2.8,51.4-7.2C163.8,94,156.2,87.6,140.4,84z"/>
		<path class="st0" d="M200.7,5.5h0.6H200.7h0.6l1.4,1.9c0,1.4,0.6,2.8,1.4,4.2l0.6,2.5V15c0,0.3,0,0.6,0.3,0.8l0.3,1.1c0,1.4,0.3,2.5,0.8,3.6 l0.3,2.8v0.8l0.3,1.4v1.4l0.3,1.1c2.5,0.3,5.8,0,9.7-0.8c0.8,0,1.9,0,2.8-0.3h0.8l1.1-0.6h1.1c0.8-0.3,1.9-0.3,3.3-0.6l1.4-0.3 l0.8-0.3L229,25c0.3,0,0.6-0.3,0.8-0.6h1.1c1.4-0.3,2.8-0.6,4.4-1.4c1.9-0.3,3.9-1.1,5.8-1.9l3.3-0.6c-1.4,1.7-3.1,3.3-5.6,5.3 l-0.6,0.6l-1.1,1.1l-0.6,0.6l-1.9,1.7l-1.1,0.8c-1.1,0.6-2.2,1.4-3.1,2.8l-5.6,1.9l-1.4,0.3c-0.6,0.3-1.4,0.8-2.5,1.1l-1.1,0.3 l-0.8,0.3h-1.1l-3.3,1.1l-5,0.8h-1.1l-0.6,0.3h-1.1c0.3,1.1,0,2.2-0.3,3.3v3.6v0.8v1.1c-0.3,1.4-0.3,3.3-0.3,5.3l-0.3,2.5v1.4 l-0.3,1.1v1.9c1.1-0.8,2.2-1.9,3.3-3.9c0.8-0.3,1.4-1.1,1.7-1.9c1.4-0.8,2.5-1.9,3.6-3.3l1.1-0.8l0.8-0.8l1.4-1.4l0.6-0.6l1.1-1.1 l1.1-0.8l4.7-3.9l0.8-0.6l1.7-1.7l1.4-0.6c4.7-2.2,3.9-1.1-1.9,3.3c-0.8,0.6-1.4,1.4-2.2,2.5l-0.8,0.3l-0.3,0.8l-0.6,0.3l-0.6,0.6 l-0.8,0.8l-0.6,0.6c-0.6,0.8-1.4,1.9-2.8,3.1l-0.3,0.8c-8.1,8.1-13.1,18.6-15,31.7l-4.2,3.6l-0.6,0.6l-0.8,0.6l-0.6,1.1 c-0.3,0-0.3,0.3-0.6,0.6c-0.3,0-0.6,0.3-0.8,0.6c-0.6,0.3-1.4,0.8-2.2,1.7l-0.6,1.1c-0.3,0-0.3,0.3-0.6,0.6l-1.1,0.8l-1.1,0.8 c-0.8-0.3-1.1-0.8-0.6-2.2c-1.4,0.8-2.8,1.1-4.7,0.6c0.6-9.2-2.8-17.8-10-25.3c-0.6-1.4-1.7-2.8-3.1-4.2l-0.3-1.4 c1.7-1.4,3.6-3.6,6.1-6.1c0.3-0.3,0.3-0.6,0.6-0.8l1.7-1.7l1.1-0.6l0.8-0.6l0.6-0.8l1.1-0.8l0.6-1.1h1.9c0.8,1.4,2.2,3.1,3.6,4.7 l0.3,0.6l0.8,0.6l0.6,1.1l0.6,0.8V46.4l-0.3-1.1v-4.7h-6.4h-1.1h-0.8l-0.8-0.3l-6.1-0.6l-0.6-0.3h-1.1H174l-10.3-2.2 c-0.6-0.3-1.4-0.6-2.5-0.8l-1.7-0.6l-0.8-0.6L157,35l-1.7-1.4l5.3-4.7l0.6-0.6c0.8-0.6,1.4-1.4,2.2-2.5l0.8-0.3l0.6-0.6l0.6-1.1 l1.4-0.6l0.8-1.4l6.1,0.6l2.2,0.8l0.8,0.3l0.8,0.3h0.8c0.8,0.3,1.7,0.8,2.8,1.1l3.9,1.1h1.1c0.8,0.6,2.2,0.8,3.6,1.1 c-0.3-2.5-1.1-5-2.5-7.8v-1.1c0.8-0.6,1.7-1.4,2.5-2.5l1.9-1.7c0.6-0.6,1.1-1.4,1.9-2.2l1.1-0.3l0.6-1.1l1.1-0.8 c0.8-0.8,1.7-1.7,2.8-2.5l0.6-0.6L200.7,5.5z"/>
		<path class="st0" d="M238.5,37.6c1.4,0.3,2.5,0.6,3.9,1.5l4.4,1.5l0.8,0.3l0.8,0.6l0.8,0l4.1,2.3l4.7,1.8l4.9,3.2l1.1,0.3l0.5,0.3l1.1,0.6 l2.2,1.2l1.1,0.6c0.8,0.3,1.6,0.9,2.7,1.5l0.5,0.3l1.4,0.3l1.4,0.9l0.8,0.6c1.4,0.9,3.3,1.5,5.5,2.1l6.9,3.2l5.3,1.2l0.5,0.3 l0.8,0.6l1.1,0.3l7.5,1.3l0.8,0.6l1.1,0l0.8,0l1.1,0.3l0.8,0l1.4,0c1.1,0.3,2.2,0.3,3.6,0.4l-4.5,3.8l-2,1.3l-0.8,0.3l-0.6,0.8 l-1.1,0.5l-0.8,0.5l-0.6,0.8l-1.1,0.8l-0.9,0.8c-0.6,0.3-0.8,0.5-1.1,0.8c-0.8,0.5-1.7,0.8-3.1,0.8c5.6,9.3,8.2,19.9,7.6,32.1 c0.2,2,0.5,3.9,0.1,6.4l0.3,1.1c-1.4,1.1-3.4,2.7-5.7,4.9c-0.3,0-0.3,0.3-0.6,0.5c-0.8,0.3-2,1.1-2.8,1.9c-0.3,0-0.3,0.3-0.6,0.5 c-0.8,0.5-1.7,1.1-2.5,1.9c-0.8,0.3-1.4,0.8-2,1.6c-0.6,0.3-1.4,0.2-2.8,0.2c0.3-1.7,0.1-3.9-0.1-6.4l0.1-3.3 c-0.3-0.6-0.2-1.4-0.2-2.5l0-1.1l-0.3-0.8c0.5-11.7-3.7-22.3-12.1-31.7c0.8-0.3,1.4-1.1,2-1.9c-1.7,0.2-3.6,1-5.6,1.8 c-0.8,0.3-1.7,0.5-2.5,1.1l-1.1,0l0.7,3.9l0.5,2.5l0,1.1l0.5,2.5l0,1.1l0.7,5l0.2,1.4l0,1.4l0.3,1.1l0,1.7c-2,1.3-4.5,3.2-7.4,6.2 l-2.2,1.1l-0.6,1.1c-1.4,0.5-2.8,1.6-4.2,3l-2.2,0l-0.4-5l0-1.1c0-0.3,0-0.6-0.3-0.8l0-1.1l-0.2-2.5l0-1.1l-0.8-2.5l-0.2-2.2 c0-0.6,0-1.1-0.2-1.7c0-1.4-0.2-3.3-0.7-5.6l0-1.4c-1.4,0.5-2.5,1.3-3.9,2.1l-1.1,0.5l-0.6,0.5l-1.1,0.3l-0.8,0l2.8-2.7 c0.3,0,0.6-0.3,0.8-0.5l3.1-2.2c-0.9-9.2-4.6-17.1-11.4-24.2l4.2-3.2l0.6-0.8l0.8-0.3l0.6-0.5l0.6-0.5L239,56l-0.8-0.6l-0.8-0.6 l-1.1-0.6l-0.8-0.3c-0.3-0.3-0.8-0.3-1.4-0.3l-0.5-0.8l-1.1-0.3c-1.1-0.6-2.5-1.2-4.1-1.8c-0.8-0.6-2.2-1.2-3.9-1.8l5.4-4.6 c0.3-0.3,0.6-0.3,0.8-0.5l0.9-0.8c0.3,0,0.3,0,0.6-0.3l2-1.3l0.6-0.3c0.6-0.5,1.4-1.1,2.5-1.9l0.8-0.5L238.5,37.6z M264.5,68.8 c0.2,1.7,0.8,3.4,1.5,5.3l0.8,2.8l0,1.1c1.4-0.2,2.8-1,4.8-2.1l2.3-1.3l1.1-0.3l0.8-0.5l0.9-0.8l-3.9-0.9c-0.5-0.3-1.4-0.9-2.8-1.2 l-0.8-0.3l-1.4-0.3C267,69.7,265.9,69.1,264.5,68.8z"/>
		<path class="st0" d="M350.9,5.7l2.2,0.3c0.3,2.5,0.8,5,2.2,7.8c0,0.3,0.3,0.6,0.6,0.8v0.8l0.3,1.1l0.6,0.6l1.1,3.3l0.6,0.6 c0.3,1.1,0.8,2.2,1.7,3.6l0.3,1.1l0.6,0.6c0.6,1.9,1.7,4.2,3.6,6.1l1.4,2.2l0.3,1.1l1.9,2.5c0,0.3,0.3,0.6,0.6,0.8 c0,0.3,0.3,0.3,0.6,0.6l2.8,4.2l0.6,0.3c0,0.3,0.3,0.6,0.6,0.8l0.3,0.6l0.6,0.3c0.8,1.4,1.9,2.8,3.3,4.2l0.3,1.1l0.6,0.3l0.6,1.1 l0.6,0.3c0.3,1.4,1.1,2.5,2.5,3.9c0.6,1.4,1.7,3.1,3.1,4.4c0.3,1.7,1.1,3.3,2.5,4.7c0.3,1.4-0.8,2.7,0.3,4.4 c0.3,0.8,1.8,1.9,2.3,3.1c0.3,1.4,0.7,3.5,1.6,5.1c0,0.8,0.1,3.2,0.3,4.6l-1.1,12.9c-1.9,0.8-3.9,2.2-5.8,4.2l-1.9,1.4 c-0.8,0.3-1.4,0.8-1.9,1.7l-0.8,0.3l-0.6,0.6l-2.8,1.7l-0.6,1.1l-1.1,0.3l-0.8,1.1h-1.7c-0.6-1.4-1.1-3.3-1.4-5.3 c0-0.3,0-0.6-0.3-0.8c0-0.8-0.3-1.4-0.8-2.2c0-0.3,0-0.6-0.3-0.8c0-0.3,0-0.8-0.3-1.1c0-0.3,0-0.6-0.3-0.8l0.9-11.2l0.1-4.3 c0-0.3,0-0.8-0.3-1.1l-0.3-0.8l-0.3-1.1c-0.6-0.6-1.1-1.4-1.4-2.5l-0.6-0.6l-0.3-1.1c-0.6,0.3-1.1,0.6-1.7,1.1l-5.6-0.3h-1.1h-2.5 H355h-1.4l-0.8-0.6l-1.1,0.6l-0.8-0.6h-4.2h-1.1h-1.7h-4.2h-0.8h-1.1h-4.2h-1.1h-5.8h-1.1h-1.4l-4.2,6.4c-1.4,0.6-2.5,1.7-3.9,3.1 c-0.3,0-0.6,0.3-0.8,0.6l-0.6,0.3l-0.6,0.6l-1.1,0.3l-3.1,2.8l-1.1,0.6l-1.1,0.8l-0.8,0.8l-1.4,0.8h-1.9l2.2-5 c0.3-0.8,0.8-1.7,1.1-2.8l0.6-0.6l0.3-1.1L308,81l0.8-1.4l0.6-0.8l0.6-1.4l0.8-2.2c1.7-2.5,3.1-5.6,4.2-9.2l0.3-0.6 c0.8-1.1,1.4-2.5,1.9-3.9l0.8-1.1l0.3-1.1l0.6-1.1l0.6-1.7l0.8-1.9l0.8-1.9c0.3-0.8,0.8-1.9,1.4-3.3c0.3-0.8,0.6-2.2,1.4-3.9 c0.3-1.1,0.6-2.2,0.8-3.6c0.8-1.4,1.4-3.1,1.9-5.6c0.3-0.3,0.3-0.6,0.3-1.1l0.8-1.7l0.6-1.7l0.6-1.7l0.8-1.7l0.6-1.7l1.7-3.1 l1.7-3.6l0.3-1.1l0.3-0.8l3.6-2.8l0.6-0.3l0.6-0.6l0.6-0.3l0.6-0.6l0.3-0.6l1.1-0.3l0.6-0.6l0.8-0.8l2.8-1.7l0.8-0.8 c1.1-0.6,2.2-1.4,3.3-2.8C350,6.2,350.6,5.9,350.9,5.7z M340.8,37.6l-0.8,2.2c-0.6,0.8-1.1,2.2-1.9,3.9l-0.3,1.1l-0.3,0.6l-0.6,1.1 l-0.6,1.4l-0.6,1.1l-0.3,0.8l-0.6,1.4c-0.3,0.8-0.8,1.9-1.4,3.1l-0.3,0.6l-0.6,1.7l-2.2,4.4l-0.3,1.7c1.9-0.3,4.2-0.3,6.7-0.3h0.8 l1.4-0.3h0.8h4.7h4.2l1.7-0.3h1.9h5.6c-0.8-1.7-2.5-3.6-4.7-5.8c0-0.3-0.3-0.8-0.6-1.1l-0.6-0.8l-0.8-0.8l-1.7-2.8l-0.8-0.8 c-0.3-0.3-0.3-0.6-0.6-0.8l-1.7-3.1l-1.1-0.8l-0.6-1.4l-1.1-0.8l-0.8-1.4l-0.3-1.4l-1.1-0.8C341.7,38.5,341.4,37.9,340.8,37.6z"/>
		<path class="st0" d="M414.8,12l1.8,0.1c1.5,16-0.9,32.3-7.2,48.8c3.2-0.7,6.7-2.1,10.3-4.8l8.7-3.3c0.3,0,0.6-0.1,0.9-0.4l1.5-0.2l1.2-0.5 l3.8-0.8c0.2-3.4,1-7.2,2.4-11l0.2-1.4c1.1-1.1,2.1-2.6,3.1-4.4l0.5-0.7l0.8-0.8L443,32l0.9-0.4l0.8-1.1l0.5-1.1l1.2-0.5l0.4-1.4 c0.9-0.4,1.4-1.2,2.2-2.3l2.1-2.6c1.4-1.2,2.4-2.6,3.7-4.8l1.8-0.2c-0.5,1.1-0.9,2.8-1.3,4.5c-2.6,6-4,13.2-4,20.9l-0.2,0.7 l-0.1,4.7L456,49l1.2-0.1l0.6,0.3l2.4,0.1l1.2-0.1l3.1,0.7l0.9,0.2l1.8,0.1l3.4,0.6l5.3,1.4l0.9,0.2l1.3,0.5l0.9,0.2l1.2,0.2 l0.9,0.2c-0.7,1.4-1.8,2.9-3.7,4.8l-0.5,1.1l-0.5,0.7l-0.5,0.7c-1.4,1.2-2.7,2.7-4,4.8c-0.3,0-0.3,0-0.6,0.4l-3.5,3.4l-0.2,1 l-11.4-2.4l-2.2-0.4l-0.6-0.3l-1.8-0.1l0.7,3.3l0.4,4c0,0.3,0.4,0.6,0.7,0.9l0.2,2l0.1,1.3c0.2,1.7,0.7,3.9,1.6,6.5l0.1,1l0.1,1.3 l0.4,1l0.5,1.6c0.5,2,1.1,4.2,2.3,6.8l0.5,1.6l0.1,1.3l0.2,1.7c-1.4,1.2-3,3-4.2,5.2c-2,1.2-3.6,3.1-5.4,5.6 c-0.8,0.8-1.3,1.5-2.1,2.6l-1.4,1.2l-0.5,1.1l-2.1,0.2c-13.3-14.3-31.8-18.3-55.5-12c1.4-1.2,2.2-2.3,2.6-3.6l1.6-1.9 c0.9-0.4,1.3-1.5,2.1-2.6l0.9-0.4l0.7-1.4l3-3l1-1.8l1.4-1.2l1.1-0.8l0.7-1.4l1.1-1.1c2.1,0.1,4.5-0.5,7.1-1.5l0.9-0.1l1.2-0.1 l0.6-0.4c5.2-1.9,9.9-5.5,14.5-10.3l1.2-0.1c-1.2,2.5-3.1,4.7-5.5,7.3c-1.1,1.1-2.4,2.6-3.7,4.4l6.3,0l2.8,0.4l0.9-0.1l2.8,0.7 l1.2-0.1l0.9,0.2l-0.3-2.7c-0.5-2-0.5-4.3-0.2-7.4l-0.6-5.6l0.2-1c-0.1-1-0.2-2,0-3l-0.1-1.3l-6.2,0.7l-1.5,0.2l-0.9,0.1l-1.5,0.2 l-1.2,0.5l-1.2,0.1l-1.2,0.1c-0.3,0-0.6,0.1-0.9,0.4l-1.5,0.2c-0.3,0-0.6,0.4-0.8,0.8l-1.5,0.2l-1.2,0.5c-1.2,0.1-2.3,0.6-3.8,1.1 l-0.9,0.1l-1.2,0.5l-0.6,0.4l-0.9,0.1c-1.4,1.2-3.4,2.1-5.7,3c-0.9,0.4-2,1.2-2.8,2l-0.9,0.1l-0.8,0.8l-0.9,0.1l-0.5,1.1l-1.2,0.5 l-2.3,0.6c0.1-1.7,0.9-3.1,1.6-4.9l0.2-1l0.2-1.4l0.2-0.7l0.8-1.1l0.2-1.4l0.5-1.1l0.2-1.4l0.4-1.4l0.4-1.7c0.5-1.1,1-2.1,1.1-3.5 c0.4-1.7,0.8-3.4,0.9-5.8l0.6-2.8l0.5-1.1l-0.2-1.7c0.5-1.1,0.7-2.1,0.8-3.4l0.2-1l-0.1-6.4c0.2-0.7,0.1-1.7,0-3l0.5-1.1l-1.2-5.2 c1.4-0.8,2.5-2,3.2-3.7l1.2-0.5L406,22l1.1-0.8l0.5-1.1l1.1-0.8l0.8-1.1l0.8-1.1c0.3-0.4,0.8-0.8,1-1.5l1.4-1.2 C413.6,14.1,414.3,13,414.8,12z"/>
	</svg>
	
	<svg id="icon-arrow-left" viewBox="0 0 21 21">
		<style type="text/css">
			.st0{fill:#fff;}
		</style>
		<polygon class="st0" points="18.2,10.3 2.8,3.6 6.8,10.3 2.8,17.4 "/>
	</svg>

	<svg id="icon-arrow-right" viewBox="0 0 21 21">
		<style type="text/css">
			.st0{fill:#fff;}
		</style>
		<polygon class="st0" points="2.8,10.7 18.2,17.4 14.2,10.7 18.2,3.6 "/>
	</svg>

	<svg id="icon-arrow-up" viewBox="0 0 21 21">
		<style type="text/css">
			.st0{fill:#fff;}
		</style>
		<polygon class="st0" points="10.3,2.8 3.6,18.2 10.3,14.2 17.4,18.2 "/>
	</svg>

	<svg id="icon-arrow-down" viewBox="0 0 21 21">
		<style type="text/css">
			.st0{fill:#fff;}
		</style>
		<polygon class="st0" points="10.7,18.2 17.4,2.8 10.7,6.8 3.6,2.8 "/>
	</svg>

	<svg id="icon-escape" viewBox="0 0 21 21">
		<style type="text/css">
			.st0{fill:#fff;}
		</style>
		<path class="st0" d="M0.9,5.1h4.7v2.1H3.7v2.1h1.7v2.1H3.7v2.4h2v2.1H0.9V5.1z"/>
		<path class="st0" d="M12.5,8.4H9.9V7.6c0-0.4,0-0.6-0.1-0.7c0-0.1-0.2-0.1-0.3-0.1c-0.2,0-0.3,0.1-0.4,0.2C8.9,7.1,8.9,7.3,8.9,7.6
			c0,0.4,0,0.6,0.1,0.8S9.4,8.8,9.8,9c1.2,0.7,2.1,1.4,2.4,1.8c0.3,0.5,0.5,1.2,0.5,2.3c0,0.8-0.1,1.3-0.3,1.7
			c-0.2,0.4-0.5,0.7-1.1,0.9c-0.5,0.2-1.1,0.4-1.8,0.4c-0.7,0-1.4-0.1-1.9-0.4c-0.5-0.3-0.9-0.6-1.1-1.1c-0.2-0.5-0.2-1.1-0.2-1.9V12
			H9v1.3c0,0.4,0,0.7,0.1,0.8c0.1,0.1,0.2,0.2,0.4,0.2s0.3-0.1,0.4-0.2s0.1-0.4,0.1-0.6c0-0.6-0.1-1.1-0.3-1.2c-0.2-0.2-0.6-0.5-1.3-1
			c-0.7-0.5-1.1-0.8-1.4-1C6.8,10,6.7,9.7,6.5,9.4C6.4,9,6.3,8.6,6.3,8c0-0.8,0.1-1.4,0.3-1.8c0.2-0.4,0.5-0.7,1-0.9s1.1-0.3,1.7-0.3
			c0.7,0,1.4,0.1,1.9,0.4c0.5,0.2,0.9,0.5,1,0.9s0.2,1,0.2,1.8L12.5,8.4L12.5,8.4z"/>
		<path class="st0" d="M20.1,9.8h-2.8V8c0-0.5,0-0.9-0.1-1c0-0.1-0.2-0.2-0.4-0.2S16.4,6.9,16.3,7c0,0.2-0.1,0.5-0.1,1.1v5
			c0,0.5,0,0.9,0.1,1c0,0.2,0.2,0.2,0.4,0.2s0.4-0.1,0.4-0.2c0-0.2,0.1-0.5,0.1-1.1v-1.4h2.8V12c0,1.1-0.1,1.9-0.2,2.4
			c-0.1,0.5-0.5,0.9-1.1,1.2s-1.2,0.5-2,0.5c-0.8,0-1.5-0.1-2.1-0.5c-0.5-0.3-0.9-0.7-1.1-1.2c-0.2-0.5-0.3-1.3-0.3-2.4V8.9
			c0-0.8,0-1.4,0.1-1.7c0-0.4,0.2-0.8,0.5-1.1c0.3-0.4,0.6-0.6,1.1-0.9c0.5-0.2,1-0.3,1.6-0.3c0.8,0,1.5,0.2,2.1,0.5s0.9,0.7,1.1,1.2
			C20,7,20,7.8,20,8.8L20.1,9.8L20.1,9.8z"/>
	</svg>

</svg>